<svg width="200" height="200" xmlns="http://www.w3.org/2000/svg">
  <defs>
    <pattern id="mosaic-elite-pattern" x="0" y="0" width="200" height="200" patternUnits="userSpaceOnUse">
      <!-- Grande étoile centrale dorée -->
      <path d="M100 40 L115 85 L162 85 L125 113 L140 158 L100 130 L60 158 L75 113 L38 85 L85 85 Z" 
            fill="#FFD700" opacity="0.25"/>
      
      <!-- Cercles concentriques -->
      <circle cx="100" cy="100" r="50" fill="none" stroke="#DB2777" stroke-width="2" opacity="0.15"/>
      <circle cx="100" cy="100" r="40" fill="none" stroke="#F59E0B" stroke-width="2" opacity="0.15"/>
      <circle cx="100" cy="100" r="30" fill="none" stroke="#0891B2" stroke-width="2" opacity="0.15"/>
      
      <!-- Motifs aux 4 coins -->
      <g opacity="0.2">
        <rect x="10" y="10" width="20" height="20" fill="#0047AB"/>
        <circle cx="20" cy="20" r="5" fill="#FFD700"/>
        
        <rect x="170" y="10" width="20" height="20" fill="#0047AB"/>
        <circle cx="180" cy="20" r="5" fill="#FFD700"/>
        
        <rect x="10" y="170" width="20" height="20" fill="#0047AB"/>
        <circle cx="20" cy="180" r="5" fill="#FFD700"/>
        
        <rect x="170" y="170" width="20" height="20" fill="#0047AB"/>
        <circle cx="180" cy="180" r="5" fill="#FFD700"/>
      </g>
      
      <!-- Lignes décoratives -->
      <line x1="100" y1="0" x2="100" y2="200" stroke="#059669" stroke-width="1" opacity="0.1" stroke-dasharray="5,5"/>
      <line x1="0" y1="100" x2="200" y2="100" stroke="#059669" stroke-width="1" opacity="0.1" stroke-dasharray="5,5"/>
    </pattern>
  </defs>
  <rect width="200" height="200" fill="url(#mosaic-elite-pattern)"/>
</svg>
